<?xml version="1.0" encoding="utf-8"?>
<!-- Generator: Adobe Illustrator 25.0.0, SVG Export Plug-In . SVG Version: 6.00 Build 0)  -->
<svg version="1.1" id="Layer_1" xmlns="http://www.w3.org/2000/svg" xmlns:xlink="http://www.w3.org/1999/xlink" x="0px" y="0px"
	 viewBox="0 0 975 336" style="enable-background:new 0 0 975 336;" xml:space="preserve">
<style type="text/css">
	.st0{clip-path:url(#SVGID_2_);}
	.st1{fill:#FFFFFF;}
	.st2{fill:#C4C4C4;}
	.st3{fill:url(#SVGID_3_);}
	.st4{fill:#592340;}
	.st5{fill-rule:evenodd;clip-rule:evenodd;fill:#592340;}
	.st6{fill-rule:evenodd;clip-rule:evenodd;fill:#FC9EC2;}
	.st7{fill:#58223F;fill-opacity:0.5;}
	.st8{fill:none;stroke:#592340;stroke-opacity:0.4;}
</style>
<g>
	<defs>
		<rect id="SVGID_1_" x="-152" width="1280" height="550"/>
	</defs>
	<clipPath id="SVGID_2_">
		<use xlink:href="#SVGID_1_"  style="overflow:visible;"/>
	</clipPath>
	<g class="st0">
		<rect x="-152" class="st1" width="1280" height="550"/>
		<path class="st2" d="M-152,0h1280v336H-152V0z"/>
		
			<linearGradient id="SVGID_3_" gradientUnits="userSpaceOnUse" x1="480.0887" y1="362.198" x2="495.4337" y2="-10.596" gradientTransform="matrix(1 0 0 -1 0 338)">
			<stop  offset="0" style="stop-color:#F1C7A7"/>
			<stop  offset="1" style="stop-color:#FF8FCB"/>
		</linearGradient>
		<path class="st3" d="M-152,0h1280v336H-152V0z"/>
		<path class="st4" d="M412.4,172.2H402l-2,4.8h-5.3l10-22.4h5.1l10,22.4h-5.4L412.4,172.2z M410.8,168.3l-3.6-8.6l-3.6,8.6H410.8z
			 M430,177.3c-1.8,0-3.5-0.4-5-1.1c-1.5-0.8-2.6-1.8-3.4-3.2c-0.8-1.3-1.2-2.9-1.2-4.6s0.4-3.2,1.2-4.6c0.8-1.3,2-2.4,3.4-3.1
			c1.5-0.8,3.1-1.2,5-1.2c1.8,0,3.4,0.4,4.7,1.2c1.4,0.7,2.4,1.8,3,3.2l-3.9,2.1c-0.9-1.6-2.2-2.4-3.9-2.4c-1.3,0-2.4,0.4-3.2,1.3
			c-0.9,0.9-1.3,2-1.3,3.5s0.4,2.6,1.3,3.5c0.9,0.9,1.9,1.3,3.2,1.3c1.7,0,3-0.8,3.9-2.4l3.9,2.1c-0.6,1.4-1.6,2.4-3,3.2
			C433.4,176.9,431.8,177.3,430,177.3z M448.7,177.3c-1.8,0-3.5-0.4-5-1.1c-1.5-0.8-2.6-1.8-3.4-3.2c-0.8-1.3-1.2-2.9-1.2-4.6
			s0.4-3.2,1.2-4.6c0.8-1.3,2-2.4,3.4-3.1c1.5-0.8,3.1-1.2,5-1.2c1.8,0,3.4,0.4,4.7,1.2c1.4,0.7,2.4,1.8,3,3.2l-3.9,2.1
			c-0.9-1.6-2.2-2.4-3.9-2.4c-1.3,0-2.4,0.4-3.2,1.3c-0.9,0.9-1.3,2-1.3,3.5s0.4,2.6,1.3,3.5c0.9,0.9,1.9,1.3,3.2,1.3
			c1.7,0,3-0.8,3.9-2.4l3.9,2.1c-0.6,1.4-1.6,2.4-3,3.2C452,176.9,450.5,177.3,448.7,177.3z M475.9,168.5c0,0.1,0,0.5-0.1,1.3h-13
			c0.2,1.1,0.8,1.9,1.7,2.5c0.9,0.6,2,0.9,3.3,0.9c0.9,0,1.7-0.1,2.4-0.4c0.7-0.3,1.4-0.7,2-1.3l2.7,2.9c-1.6,1.9-4,2.8-7.1,2.8
			c-1.9,0-3.7-0.4-5.2-1.1c-1.5-0.8-2.6-1.8-3.5-3.2c-0.8-1.3-1.2-2.9-1.2-4.6c0-1.7,0.4-3.2,1.2-4.5c0.8-1.4,1.9-2.4,3.3-3.2
			c1.4-0.8,3-1.2,4.7-1.2c1.7,0,3.2,0.4,4.6,1.1c1.4,0.7,2.4,1.8,3.2,3.1C475.5,165.1,475.9,166.7,475.9,168.5z M467,163.3
			c-1.1,0-2.1,0.3-2.8,1c-0.8,0.6-1.2,1.5-1.4,2.6h8.5c-0.2-1.1-0.6-2-1.4-2.6C469,163.6,468.1,163.3,467,163.3z M485,177.3
			c-1.4,0-2.8-0.2-4.2-0.5c-1.4-0.4-2.5-0.8-3.3-1.3l1.7-3.6c0.8,0.5,1.7,0.9,2.8,1.2c1.1,0.3,2.2,0.4,3.2,0.4
			c2.1,0,3.2-0.5,3.2-1.6c0-0.5-0.3-0.8-0.9-1.1c-0.6-0.2-1.5-0.4-2.7-0.5c-1.4-0.2-2.6-0.5-3.5-0.7c-0.9-0.3-1.7-0.8-2.4-1.5
			c-0.7-0.7-1-1.7-1-3c0-1.1,0.3-2,0.9-2.9c0.6-0.9,1.6-1.5,2.8-2c1.2-0.5,2.6-0.7,4.3-0.7c1.2,0,2.4,0.1,3.6,0.4
			c1.2,0.3,2.2,0.6,3,1.1l-1.7,3.6c-1.5-0.9-3.2-1.3-5-1.3c-1.1,0-1.9,0.1-2.4,0.4c-0.5,0.3-0.8,0.7-0.8,1.2c0,0.5,0.3,0.9,0.9,1.1
			c0.6,0.2,1.5,0.4,2.8,0.6c1.4,0.2,2.6,0.5,3.5,0.8c0.9,0.3,1.7,0.7,2.3,1.4c0.7,0.7,1,1.7,1,2.9c0,1.1-0.3,2-1,2.8
			c-0.6,0.8-1.6,1.5-2.8,2C488.1,177,486.7,177.3,485,177.3z M502,177.3c-1.4,0-2.8-0.2-4.2-0.5c-1.4-0.4-2.5-0.8-3.3-1.3l1.7-3.6
			c0.8,0.5,1.7,0.9,2.8,1.2c1.1,0.3,2.2,0.4,3.2,0.4c2.1,0,3.2-0.5,3.2-1.6c0-0.5-0.3-0.8-0.9-1.1c-0.6-0.2-1.5-0.4-2.7-0.5
			c-1.4-0.2-2.6-0.5-3.5-0.7c-0.9-0.3-1.7-0.8-2.4-1.5c-0.7-0.7-1-1.7-1-3c0-1.1,0.3-2,0.9-2.9c0.6-0.9,1.6-1.5,2.8-2
			c1.2-0.5,2.6-0.7,4.3-0.7c1.2,0,2.4,0.1,3.6,0.4c1.2,0.3,2.2,0.6,3,1.1l-1.7,3.6c-1.5-0.9-3.2-1.3-5-1.3c-1.1,0-1.9,0.1-2.4,0.4
			c-0.5,0.3-0.8,0.7-0.8,1.2c0,0.5,0.3,0.9,0.9,1.1c0.6,0.2,1.5,0.4,2.8,0.6c1.4,0.2,2.6,0.5,3.5,0.8c0.9,0.3,1.7,0.7,2.3,1.4
			c0.7,0.7,1,1.7,1,2.9c0,1.1-0.3,2-1,2.8c-0.6,0.8-1.6,1.5-2.8,2C505.1,177,503.7,177.3,502,177.3z M513.2,159.8h5V177h-5V159.8z
			 M515.7,157.4c-0.9,0-1.7-0.3-2.2-0.8s-0.9-1.2-0.9-2s0.3-1.5,0.9-2s1.3-0.8,2.2-0.8c0.9,0,1.7,0.3,2.2,0.8s0.9,1.2,0.9,1.9
			c0,0.8-0.3,1.5-0.9,2.1C517.4,157.1,516.6,157.4,515.7,157.4z M533,159.5c1.6,0,3.1,0.4,4.4,1.1c1.3,0.7,2.4,1.8,3.1,3.1
			c0.7,1.3,1.1,2.9,1.1,4.6s-0.4,3.3-1.1,4.7c-0.7,1.3-1.8,2.4-3.1,3.1c-1.3,0.7-2.8,1.1-4.4,1.1c-2.4,0-4.2-0.7-5.4-2.2v2h-4.8
			v-23.7h5v8.4C529.1,160.2,530.8,159.5,533,159.5z M532.1,173.2c1.3,0,2.3-0.4,3.1-1.3c0.8-0.9,1.2-2,1.2-3.5s-0.4-2.6-1.2-3.5
			c-0.8-0.9-1.9-1.3-3.1-1.3c-1.3,0-2.3,0.4-3.2,1.3c-0.8,0.9-1.2,2-1.2,3.5s0.4,2.6,1.2,3.5C529.8,172.7,530.9,173.2,532.1,173.2z
			 M544.9,153.3h5V177h-5V153.3z M571.4,168.5c0,0.1,0,0.5-0.1,1.3h-13c0.2,1.1,0.8,1.9,1.7,2.5s2,0.9,3.3,0.9
			c0.9,0,1.7-0.1,2.4-0.4c0.7-0.3,1.4-0.7,2-1.3l2.7,2.9c-1.6,1.9-4,2.8-7.1,2.8c-1.9,0-3.7-0.4-5.2-1.1c-1.5-0.8-2.6-1.8-3.5-3.2
			c-0.8-1.3-1.2-2.9-1.2-4.6c0-1.7,0.4-3.2,1.2-4.5c0.8-1.4,1.9-2.4,3.3-3.2c1.4-0.8,3-1.2,4.7-1.2c1.7,0,3.2,0.4,4.6,1.1
			c1.4,0.7,2.4,1.8,3.2,3.1C571,165.1,571.4,166.7,571.4,168.5z M562.5,163.3c-1.1,0-2.1,0.3-2.8,1c-0.8,0.6-1.2,1.5-1.4,2.6h8.5
			c-0.2-1.1-0.6-2-1.4-2.6C564.5,163.6,563.6,163.3,562.5,163.3z M576.7,171c0.9,0,1.6,0.3,2.2,0.9c0.6,0.6,0.9,1.3,0.9,2.2
			c0,0.4-0.1,0.9-0.2,1.3c-0.1,0.4-0.3,1.1-0.7,1.9l-1.8,4.6h-3.2l1.4-5.1c-0.5-0.2-1-0.6-1.3-1c-0.3-0.5-0.4-1.1-0.4-1.7
			c0-0.9,0.3-1.7,0.9-2.2C575,171.3,575.8,171,576.7,171z M592.5,154.6h10.2c2.4,0,4.6,0.5,6.4,1.4c1.9,0.9,3.3,2.2,4.4,3.9
			c1,1.7,1.6,3.6,1.6,5.9c0,2.2-0.5,4.2-1.6,5.9c-1,1.7-2.5,3-4.4,3.9c-1.9,0.9-4,1.4-6.4,1.4h-10.2V154.6z M602.5,172.7
			c2.2,0,4-0.6,5.3-1.9c1.3-1.3,2-3,2-5.1s-0.7-3.8-2-5.1c-1.3-1.3-3.1-1.9-5.3-1.9h-4.7v13.9H602.5z M635.5,168.5
			c0,0.1,0,0.5-0.1,1.3h-13c0.2,1.1,0.8,1.9,1.7,2.5c0.9,0.6,2,0.9,3.3,0.9c0.9,0,1.7-0.1,2.4-0.4c0.7-0.3,1.4-0.7,2-1.3l2.7,2.9
			c-1.6,1.9-4,2.8-7.1,2.8c-1.9,0-3.7-0.4-5.2-1.1c-1.5-0.8-2.6-1.8-3.5-3.2c-0.8-1.3-1.2-2.9-1.2-4.6c0-1.7,0.4-3.2,1.2-4.5
			c0.8-1.4,1.9-2.4,3.3-3.2c1.4-0.8,3-1.2,4.7-1.2c1.7,0,3.2,0.4,4.6,1.1c1.4,0.7,2.4,1.8,3.2,3.1
			C635.1,165.1,635.5,166.7,635.5,168.5z M626.6,163.3c-1.1,0-2.1,0.3-2.8,1c-0.8,0.6-1.2,1.5-1.4,2.6h8.5c-0.2-1.1-0.6-2-1.4-2.6
			C628.6,163.6,627.7,163.3,626.6,163.3z M638.8,153.3h5V177h-5V153.3z M648.4,159.8h5V177h-5V159.8z M650.9,157.4
			c-0.9,0-1.7-0.3-2.2-0.8s-0.9-1.2-0.9-2s0.3-1.5,0.9-2s1.3-0.8,2.2-0.8s1.7,0.3,2.2,0.8c0.6,0.5,0.9,1.2,0.9,1.9
			c0,0.8-0.3,1.5-0.9,2.1C652.6,157.1,651.8,157.4,650.9,157.4z M675.8,159.8v14.3c0,3.2-0.8,5.5-2.5,7c-1.6,1.5-4,2.3-7.2,2.3
			c-1.7,0-3.2-0.2-4.7-0.6s-2.7-1-3.7-1.8l2-3.6c0.7,0.6,1.6,1.1,2.8,1.4c1.1,0.4,2.2,0.5,3.3,0.5c1.7,0,3-0.4,3.8-1.2
			c0.8-0.8,1.2-1.9,1.2-3.5V174c-1.3,1.4-3.1,2.1-5.4,2.1c-1.6,0-3-0.3-4.4-1c-1.3-0.7-2.3-1.7-3.1-2.9c-0.8-1.3-1.2-2.7-1.2-4.4
			c0-1.6,0.4-3.1,1.2-4.4c0.8-1.3,1.8-2.2,3.1-2.9c1.3-0.7,2.8-1.1,4.4-1.1c2.5,0,4.4,0.8,5.7,2.5v-2.2H675.8z M666.4,172.1
			c1.3,0,2.4-0.4,3.2-1.2c0.9-0.8,1.3-1.8,1.3-3.1c0-1.3-0.4-2.3-1.3-3c-0.8-0.8-1.9-1.2-3.2-1.2s-2.4,0.4-3.3,1.2
			c-0.9,0.8-1.3,1.8-1.3,3c0,1.3,0.4,2.3,1.3,3.1C664,171.7,665.1,172.1,666.4,172.1z M690.9,159.5c2.1,0,3.9,0.6,5.2,1.9
			c1.3,1.3,2,3.2,2,5.7v9.9h-5v-9.1c0-1.4-0.3-2.4-0.9-3c-0.6-0.7-1.5-1-2.6-1c-1.3,0-2.3,0.4-3,1.2c-0.7,0.8-1.1,1.9-1.1,3.5v8.5
			h-5v-23.7h5v8.3c0.7-0.7,1.5-1.2,2.4-1.5C688.8,159.7,689.8,159.5,690.9,159.5z M713.7,176.2c-0.5,0.4-1.1,0.6-1.8,0.8
			c-0.7,0.2-1.5,0.3-2.2,0.3c-2,0-3.6-0.5-4.8-1.6c-1.1-1-1.7-2.6-1.7-4.6V164h-2.7v-3.8h2.7V156h5v4.2h4.3v3.8h-4.3v7
			c0,0.7,0.2,1.3,0.5,1.7c0.4,0.4,0.9,0.6,1.6,0.6c0.8,0,1.5-0.2,2-0.6L713.7,176.2z M722,160.2h4.4v3.8h-4.3v13h-5v-13h-2.7v-3.8
			h2.7v-0.8c0-2,0.6-3.5,1.7-4.7c1.2-1.2,2.8-1.7,4.9-1.7c0.7,0,1.5,0.1,2.1,0.3c0.7,0.1,1.2,0.4,1.7,0.7l-1.3,3.6
			c-0.6-0.4-1.2-0.6-2-0.6c-1.5,0-2.3,0.8-2.3,2.5V160.2z M746.2,159.8V177h-4.7v-2c-0.7,0.7-1.5,1.3-2.4,1.7
			c-0.9,0.4-1.9,0.6-3,0.6c-2.3,0-4.1-0.7-5.4-2c-1.3-1.3-2-3.2-2-5.8v-9.7h5v9c0,2.8,1.2,4.2,3.5,4.2c1.2,0,2.2-0.4,2.9-1.2
			c0.7-0.8,1.1-2,1.1-3.5v-8.5H746.2z M750.8,153.3h5V177h-5V153.3z M762.4,171c0.9,0,1.6,0.3,2.2,0.9c0.6,0.6,0.9,1.3,0.9,2.2
			c0,0.4-0.1,0.9-0.2,1.3c-0.1,0.4-0.3,1.1-0.7,1.9l-1.8,4.6h-3.2l1.4-5.1c-0.5-0.2-1-0.6-1.3-1c-0.3-0.5-0.4-1.1-0.4-1.7
			c0-0.9,0.3-1.7,0.9-2.2C760.7,171.3,761.5,171,762.4,171z M404.2,205.5c2.7,0,4.7,0.6,6.1,1.9c1.4,1.3,2.1,3.2,2.1,5.7v9.8h-4.7
			v-2.1c-0.9,1.6-2.7,2.4-5.2,2.4c-1.3,0-2.5-0.2-3.5-0.7c-1-0.4-1.7-1.1-2.2-1.9s-0.8-1.7-0.8-2.7c0-1.6,0.6-2.9,1.8-3.8
			c1.2-0.9,3.1-1.4,5.6-1.4h4c0-1.1-0.3-1.9-1-2.5c-0.7-0.6-1.7-0.9-3-0.9c-0.9,0-1.8,0.1-2.7,0.4c-0.9,0.3-1.6,0.7-2.2,1.2
			l-1.8-3.5c0.9-0.7,2.1-1.2,3.4-1.5C401.5,205.7,402.9,205.5,404.2,205.5z M403.9,219.9c0.9,0,1.6-0.2,2.3-0.6
			c0.7-0.4,1.1-1,1.4-1.8v-1.8h-3.4c-2,0-3.1,0.7-3.1,2c0,0.6,0.2,1.2,0.7,1.5C402.3,219.7,403,219.9,403.9,219.9z M427.5,205.5
			c2.1,0,3.9,0.6,5.2,1.9c1.3,1.3,2,3.2,2,5.7v9.9h-5v-9.1c0-1.4-0.3-2.4-0.9-3c-0.6-0.7-1.5-1-2.6-1c-1.3,0-2.3,0.4-3,1.2
			c-0.7,0.8-1.1,1.9-1.1,3.5v8.5h-5v-17.2h4.8v2c0.7-0.7,1.5-1.3,2.5-1.7C425.3,205.7,426.3,205.5,427.5,205.5z M456.9,199.3V223
			h-4.8v-2c-1.2,1.5-3,2.2-5.4,2.2c-1.6,0-3.1-0.4-4.4-1.1c-1.3-0.7-2.3-1.8-3.1-3.1c-0.7-1.3-1.1-2.9-1.1-4.7s0.4-3.3,1.1-4.7
			c0.7-1.3,1.8-2.4,3.1-3.1c1.3-0.7,2.8-1.1,4.4-1.1c2.2,0,3.9,0.7,5.2,2.1v-8.4H456.9z M447.6,219.2c1.3,0,2.3-0.4,3.1-1.3
			c0.8-0.9,1.2-2,1.2-3.5s-0.4-2.6-1.2-3.5c-0.8-0.9-1.9-1.3-3.1-1.3c-1.3,0-2.3,0.4-3.2,1.3c-0.8,0.9-1.2,2-1.2,3.5
			s0.4,2.6,1.2,3.5C445.3,218.7,446.3,219.2,447.6,219.2z M480.6,200.6c2,0,3.7,0.3,5.2,1c1.5,0.7,2.6,1.6,3.4,2.8
			c0.8,1.2,1.2,2.7,1.2,4.3c0,1.6-0.4,3.1-1.2,4.3c-0.8,1.2-1.9,2.2-3.4,2.8c-1.5,0.6-3.2,1-5.2,1h-4.5v6.2h-5.2v-22.4H480.6z
			 M480.3,212.6c1.6,0,2.7-0.3,3.6-1c0.8-0.7,1.2-1.6,1.2-2.9c0-1.3-0.4-2.2-1.2-2.9c-0.8-0.7-2-1-3.6-1h-4.2v7.8H480.3z
			 M510.5,214.5c0,0.1,0,0.5-0.1,1.3h-13c0.2,1.1,0.8,1.9,1.7,2.5s2,0.9,3.3,0.9c0.9,0,1.7-0.1,2.4-0.4c0.7-0.3,1.4-0.7,2-1.3
			l2.7,2.9c-1.6,1.9-4,2.8-7.1,2.8c-1.9,0-3.7-0.4-5.2-1.1c-1.5-0.8-2.6-1.8-3.5-3.2c-0.8-1.3-1.2-2.9-1.2-4.6
			c0-1.7,0.4-3.2,1.2-4.5c0.8-1.4,1.9-2.4,3.3-3.2c1.4-0.8,3-1.2,4.7-1.2c1.7,0,3.2,0.4,4.6,1.1c1.4,0.7,2.4,1.8,3.2,3.1
			C510.1,211.1,510.5,212.7,510.5,214.5z M501.6,209.3c-1.1,0-2.1,0.3-2.8,1c-0.8,0.6-1.2,1.5-1.4,2.6h8.5c-0.2-1.1-0.6-2-1.4-2.6
			C503.7,209.6,502.7,209.3,501.6,209.3z M518.6,208.1c0.6-0.8,1.4-1.5,2.4-1.9c1-0.4,2.2-0.6,3.5-0.6v4.6c-0.6,0-0.9-0.1-1.1-0.1
			c-1.4,0-2.5,0.4-3.4,1.2c-0.8,0.8-1.2,2-1.2,3.6v8.1h-5v-17.2h4.8V208.1z M533.1,206.2h4.4v3.8h-4.3v13h-5v-13h-2.7v-3.8h2.7v-0.8
			c0-2,0.6-3.5,1.7-4.7c1.2-1.2,2.8-1.7,4.9-1.7c0.7,0,1.5,0.1,2.1,0.3c0.7,0.1,1.2,0.4,1.7,0.7l-1.3,3.6c-0.6-0.4-1.2-0.6-2-0.6
			c-1.5,0-2.3,0.8-2.3,2.5V206.2z M548,223.3c-1.8,0-3.4-0.4-4.9-1.1c-1.4-0.8-2.5-1.8-3.4-3.2c-0.8-1.3-1.2-2.9-1.2-4.6
			s0.4-3.2,1.2-4.6c0.8-1.3,1.9-2.4,3.4-3.1c1.5-0.8,3.1-1.2,4.9-1.2c1.8,0,3.4,0.4,4.9,1.2c1.4,0.7,2.5,1.8,3.4,3.1
			c0.8,1.3,1.2,2.9,1.2,4.6s-0.4,3.2-1.2,4.6c-0.8,1.3-1.9,2.4-3.4,3.2C551.4,222.9,549.8,223.3,548,223.3z M548,219.2
			c1.3,0,2.3-0.4,3.1-1.3c0.8-0.9,1.2-2,1.2-3.5s-0.4-2.6-1.2-3.5c-0.8-0.9-1.9-1.3-3.1-1.3c-1.3,0-2.3,0.4-3.2,1.3
			c-0.8,0.9-1.2,2-1.2,3.5s0.4,2.6,1.2,3.5C545.7,218.7,546.7,219.2,548,219.2z M565.5,208.1c0.6-0.8,1.4-1.5,2.4-1.9
			c1-0.4,2.2-0.6,3.5-0.6v4.6c-0.6,0-0.9-0.1-1.1-0.1c-1.4,0-2.5,0.4-3.4,1.2c-0.8,0.8-1.2,2-1.2,3.6v8.1h-5v-17.2h4.8V208.1z
			 M596.5,205.5c2.2,0,3.9,0.6,5.1,1.9c1.3,1.3,1.9,3.2,1.9,5.7v9.9h-5v-9.1c0-1.4-0.3-2.4-0.9-3c-0.6-0.7-1.4-1-2.4-1
			c-1.2,0-2.1,0.4-2.8,1.2c-0.7,0.7-1,1.9-1,3.4v8.6h-5v-9.1c0-2.7-1.1-4.1-3.3-4.1c-1.2,0-2.1,0.4-2.8,1.2c-0.7,0.7-1,1.9-1,3.4
			v8.6h-5v-17.2h4.8v2c0.6-0.7,1.4-1.3,2.3-1.7c0.9-0.4,2-0.6,3.1-0.6c1.2,0,2.3,0.2,3.3,0.7c1,0.5,1.8,1.2,2.4,2.1
			c0.7-0.9,1.6-1.6,2.7-2.1C594,205.8,595.2,205.5,596.5,205.5z M614.9,205.5c2.7,0,4.7,0.6,6.1,1.9c1.4,1.3,2.1,3.2,2.1,5.7v9.8
			h-4.7v-2.1c-0.9,1.6-2.7,2.4-5.2,2.4c-1.3,0-2.5-0.2-3.5-0.7c-1-0.4-1.7-1.1-2.2-1.9c-0.5-0.8-0.8-1.7-0.8-2.7
			c0-1.6,0.6-2.9,1.8-3.8c1.2-0.9,3.1-1.4,5.6-1.4h4c0-1.1-0.3-1.9-1-2.5c-0.7-0.6-1.7-0.9-3-0.9c-0.9,0-1.8,0.1-2.7,0.4
			c-0.9,0.3-1.6,0.7-2.2,1.2l-1.8-3.5c0.9-0.7,2.1-1.2,3.4-1.5C612.2,205.7,613.5,205.5,614.9,205.5z M614.6,219.9
			c0.9,0,1.6-0.2,2.3-0.6c0.7-0.4,1.1-1,1.4-1.8v-1.8h-3.4c-2,0-3.1,0.7-3.1,2c0,0.6,0.2,1.2,0.7,1.5
			C613,219.7,613.7,219.9,614.6,219.9z M638.2,205.5c2.1,0,3.9,0.6,5.2,1.9c1.3,1.3,2,3.2,2,5.7v9.9h-5v-9.1c0-1.4-0.3-2.4-0.9-3
			c-0.6-0.7-1.5-1-2.6-1c-1.3,0-2.3,0.4-3,1.2c-0.7,0.8-1.1,1.9-1.1,3.5v8.5h-5v-17.2h4.8v2c0.7-0.7,1.5-1.3,2.5-1.7
			C636,205.7,637,205.5,638.2,205.5z M661,222.2c-0.5,0.4-1.1,0.6-1.8,0.8c-0.7,0.2-1.5,0.3-2.2,0.3c-2,0-3.6-0.5-4.8-1.6
			c-1.1-1-1.7-2.6-1.7-4.6V210h-2.7v-3.8h2.7V202h5v4.2h4.3v3.8h-4.3v7c0,0.7,0.2,1.3,0.5,1.7c0.4,0.4,0.9,0.6,1.6,0.6
			c0.8,0,1.5-0.2,2-0.6L661,222.2z"/>
		<path class="st5" d="M187.2,50C164,50,154,60.5,154,83.5v344c0,23,10,33,33.2,33h133.2c22.4,0,33.6-10.9,33.6-33c0,0,0-321,0-344
			c0-23-10.7-33.5-33.8-33.5H187.2z"/>
		<path class="st6" d="M203,63.5c0.5,4.5,3.6,9.5,11.5,9.5H293c7.9,0,10.5-5,11-9.5c0.3-2.5,1.3-4.5,5-4.5l14.5,0.1
			C336.6,59.1,345,67,345,80v349.5c0,13-8.4,21-21.5,21H184.1c-13.1,0-21.1-7.9-21.1-20.9V80c0-13,7.9-21,21-21h15
			C202.7,59,202.8,61.5,203,63.5z"/>
		<path class="st1" d="M163,149.8c0-6.3,0-9.4,0.9-11.9c1.5-4.1,4.8-7.4,8.9-8.9c2.5-0.9,5.7-0.9,11.9-0.9h138.5
			c6.3,0,9.4,0,11.9,0.9c4.1,1.5,7.4,4.8,8.9,8.9c0.9,2.5,0.9,5.7,0.9,11.9V422c0,8.4,0,12.6-1.2,15.9c-2,5.5-6.4,9.8-11.8,11.8
			c-3.4,1.2-7.5,1.2-15.9,1.2H192c-8.4,0-12.6,0-15.9-1.2c-5.5-2-9.8-6.4-11.8-11.8c-1.2-3.4-1.2-7.5-1.2-15.9V149.8z"/>
		<path class="st4" d="M207.7,242.3c1.3,0.5,2.3,1.2,3.1,2.1c0.7,0.9,1.1,2.1,1.1,3.4c0,2-0.8,3.5-2.4,4.6c-1.6,1.1-4,1.6-7,1.6
			h-12.6v-22.4h12c3,0,5.2,0.5,6.8,1.6c1.5,1.1,2.3,2.5,2.3,4.3c0,1-0.3,2-0.8,2.8C209.5,241.1,208.8,241.8,207.7,242.3z
			 M197.2,236.9v3.3h3.5c1.6,0,2.5-0.6,2.5-1.7c0-1.1-0.8-1.7-2.5-1.7H197.2z M201.8,248.7c1.7,0,2.5-0.6,2.5-1.8s-0.8-1.8-2.5-1.8
			h-4.5v3.5H201.8z M223.6,254.3c-1.9,0-3.7-0.4-5.2-1.2c-1.5-0.8-2.7-1.9-3.6-3.2c-0.9-1.4-1.3-3-1.3-4.7s0.4-3.3,1.3-4.7
			c0.9-1.4,2.1-2.5,3.6-3.2c1.6-0.8,3.3-1.2,5.2-1.2c2,0,3.7,0.4,5.2,1.2c1.6,0.8,2.8,1.8,3.6,3.2c0.9,1.4,1.3,2.9,1.3,4.7
			s-0.4,3.3-1.3,4.7c-0.9,1.4-2.1,2.4-3.6,3.2C227.3,253.9,225.6,254.3,223.6,254.3z M223.6,248.7c0.8,0,1.5-0.3,2-0.9
			c0.5-0.6,0.8-1.5,0.8-2.6c0-1.1-0.3-1.9-0.8-2.5c-0.5-0.6-1.2-0.9-2-0.9c-0.8,0-1.5,0.3-2,0.9c-0.5,0.6-0.8,1.4-0.8,2.5
			c0,1.1,0.3,1.9,0.8,2.6C222.1,248.4,222.8,248.7,223.6,248.7z M248.9,253.4c-1.1,0.6-2.6,0.9-4.4,0.9c-2.5,0-4.3-0.6-5.7-1.8
			c-1.3-1.2-2-3-2-5.3v-4.5h-2.4v-5.3h2.4v-4.9h7.2v4.9h3.6v5.3h-3.6v4.4c0,0.5,0.1,0.9,0.4,1.2c0.3,0.3,0.6,0.4,1.1,0.4
			c0.6,0,1.2-0.2,1.6-0.5L248.9,253.4z M263.3,253.4c-1.1,0.6-2.6,0.9-4.4,0.9c-2.5,0-4.3-0.6-5.7-1.8c-1.3-1.2-2-3-2-5.3v-4.5h-2.4
			v-5.3h2.4v-4.9h7.2v4.9h3.6v5.3h-3.6v4.4c0,0.5,0.1,0.9,0.4,1.2c0.3,0.3,0.6,0.4,1.1,0.4c0.6,0,1.2-0.2,1.6-0.5L263.3,253.4z
			 M273.9,254.3c-1.9,0-3.7-0.4-5.2-1.2c-1.5-0.8-2.7-1.9-3.6-3.2c-0.9-1.4-1.3-3-1.3-4.7s0.4-3.3,1.3-4.7c0.9-1.4,2.1-2.5,3.6-3.2
			c1.6-0.8,3.3-1.2,5.2-1.2c2,0,3.7,0.4,5.2,1.2c1.6,0.8,2.8,1.8,3.6,3.2c0.9,1.4,1.3,2.9,1.3,4.7s-0.4,3.3-1.3,4.7
			c-0.9,1.4-2.1,2.4-3.6,3.2C277.7,253.9,275.9,254.3,273.9,254.3z M273.9,248.7c0.8,0,1.5-0.3,2-0.9c0.5-0.6,0.8-1.5,0.8-2.6
			c0-1.1-0.3-1.9-0.8-2.5c-0.5-0.6-1.2-0.9-2-0.9s-1.5,0.3-2,0.9c-0.5,0.6-0.8,1.4-0.8,2.5c0,1.1,0.3,1.9,0.8,2.6
			C272.4,248.4,273.1,248.7,273.9,248.7z M309.5,236.2c2.1,0,3.8,0.7,5.1,2c1.3,1.3,1.9,3.3,1.9,5.9v10h-7.2v-8.7c0-2-0.6-3-2-3
			c-0.7,0-1.2,0.3-1.7,0.8c-0.4,0.5-0.6,1.3-0.6,2.4v8.5h-7.2v-8.7c0-2-0.6-3-2-3c-0.7,0-1.2,0.3-1.7,0.8c-0.4,0.5-0.6,1.3-0.6,2.4
			v8.5h-7.2v-17.5h6.9v1.6c1.3-1.3,3-2,5-2c1.2,0,2.2,0.2,3.2,0.7c0.9,0.4,1.7,1.1,2.3,2c0.7-0.9,1.6-1.5,2.6-2
			C307.3,236.4,308.4,236.2,309.5,236.2z M198.2,300.5c-1.9,0-3.7-0.2-5.4-0.6c-1.7-0.4-3.2-1-4.3-1.7l2.4-5.5
			c1.1,0.6,2.3,1.1,3.6,1.5c1.3,0.4,2.6,0.5,3.8,0.5c1,0,1.8-0.1,2.2-0.3c0.4-0.2,0.7-0.5,0.7-0.9c0-0.5-0.3-0.8-0.9-1.1
			c-0.6-0.2-1.5-0.5-2.9-0.8c-1.7-0.4-3.2-0.7-4.3-1.2c-1.2-0.4-2.2-1.1-3-2c-0.9-1-1.3-2.3-1.3-3.9c0-1.4,0.4-2.7,1.2-3.8
			c0.8-1.2,2-2.1,3.5-2.7c1.6-0.7,3.5-1,5.7-1c1.5,0,3,0.2,4.5,0.5c1.5,0.3,2.8,0.8,3.9,1.4l-2.3,5.5c-2.2-1.1-4.3-1.7-6.2-1.7
			c-1.9,0-2.9,0.5-2.9,1.4c0,0.4,0.3,0.8,0.9,1c0.6,0.2,1.5,0.4,2.8,0.7c1.7,0.3,3.1,0.7,4.3,1.1c1.2,0.4,2.2,1.1,3,2
			c0.9,0.9,1.3,2.2,1.3,3.8c0,1.4-0.4,2.7-1.2,3.8c-0.8,1.1-2,2-3.6,2.7C202.3,300.2,200.4,300.5,198.2,300.5z M222.8,282.2
			c2.2,0,3.9,0.7,5.2,2c1.3,1.3,2,3.3,2,5.9v10h-7.2v-8.7c0-2-0.7-3-2.1-3c-0.8,0-1.5,0.3-2,0.9c-0.5,0.6-0.7,1.4-0.7,2.7v8.2h-7.2
			v-23.7h7.2v7.6C219.2,282.8,220.9,282.2,222.8,282.2z M252,291.2c0,0.1,0,0.7-0.1,1.7h-12.2c0.3,0.7,0.7,1.2,1.3,1.5
			c0.6,0.3,1.3,0.5,2.2,0.5c0.8,0,1.4-0.1,1.9-0.3c0.5-0.2,1.1-0.5,1.7-1l3.8,3.8c-1.7,1.9-4.3,2.8-7.6,2.8c-2.1,0-4-0.4-5.6-1.2
			c-1.6-0.8-2.8-1.9-3.7-3.3c-0.9-1.4-1.3-2.9-1.3-4.7c0-1.7,0.4-3.3,1.3-4.7c0.9-1.4,2.1-2.5,3.6-3.2c1.5-0.8,3.2-1.2,5.1-1.2
			c1.8,0,3.4,0.4,4.8,1.1c1.5,0.7,2.6,1.7,3.5,3.1C251.6,287.7,252,289.3,252,291.2z M242.5,287.1c-0.7,0-1.4,0.2-1.9,0.6
			c-0.5,0.4-0.8,1-1,1.7h5.6c-0.2-0.7-0.5-1.3-1-1.7C243.8,287.3,243.2,287.1,242.5,287.1z M272.9,291.2c0,0.1,0,0.7-0.1,1.7h-12.2
			c0.3,0.7,0.7,1.2,1.3,1.5c0.6,0.3,1.3,0.5,2.2,0.5c0.8,0,1.4-0.1,1.9-0.3c0.5-0.2,1.1-0.5,1.7-1l3.8,3.8c-1.7,1.9-4.3,2.8-7.6,2.8
			c-2.1,0-4-0.4-5.6-1.2c-1.6-0.8-2.8-1.9-3.7-3.3c-0.9-1.4-1.3-2.9-1.3-4.7c0-1.7,0.4-3.3,1.3-4.7c0.9-1.4,2.1-2.5,3.6-3.2
			c1.5-0.8,3.2-1.2,5.1-1.2c1.8,0,3.4,0.4,4.8,1.1c1.5,0.7,2.6,1.7,3.5,3.1C272.5,287.7,272.9,289.3,272.9,291.2z M263.4,287.1
			c-0.7,0-1.4,0.2-1.9,0.6c-0.5,0.4-0.8,1-1,1.7h5.6c-0.1-0.7-0.5-1.3-1-1.7C264.7,287.3,264.1,287.1,263.4,287.1z M288.1,299.4
			c-1.1,0.6-2.6,0.9-4.4,0.9c-2.5,0-4.3-0.6-5.7-1.8c-1.3-1.2-2-3-2-5.3v-4.5h-2.4v-5.3h2.4v-4.9h7.2v4.9h3.6v5.3h-3.6v4.4
			c0,0.5,0.1,0.9,0.4,1.2c0.3,0.3,0.6,0.4,1.1,0.4c0.6,0,1.2-0.2,1.6-0.5L288.1,299.4z"/>
		<path class="st7" d="M244,135h20c0.6,0,1,0.4,1,1l0,0c0,0.6-0.4,1-1,1h-20c-0.6,0-1-0.4-1-1l0,0C243,135.4,243.4,135,244,135z"/>
		<rect x="-152" y="336" class="st1" width="1280" height="214"/>
		<rect x="-152.5" y="335.5" class="st8" width="1281" height="215"/>
	</g>
</g>
<image style="overflow:visible;" width="8277" height="8277" xlink:href="E703BC55.png"  transform="matrix(6.067000e-03 0 0 6.067000e-03 227.121 154.0446)">
</image>
</svg>
